<svg version="1.1" xmlns="http://www.w3.org/2000/svg" xmlns:xlink="http://www.w3.org/1999/xlink" width="812" height="177"><defs/><g><g transform="translate(-22,-78) scale(1,1)"><path fill="#ffffff" stroke="none" d="M 48.5 112 L 111.5 112 Q 128 112 128 128.5 L 128 127.5 Q 128 144 111.5 144 L 48.5 144 Q 32 144 32 127.5 L 32 128.5 Q 32 112 48.5 112 Z"/></g><g transform="translate(-22,-78) scale(1,1)"><path fill="none" stroke="#000000" d="M 48.5 112 L 111.5 112 Q 128 112 128 128.5 L 128 127.5 Q 128 144 111.5 144 L 48.5 144 Q 32 144 32 127.5 L 32 128.5 Q 32 112 48.5 112 Z" stroke-miterlimit="10"/></g><g transform="translate(-22,-78) scale(1,1)"><g><path fill="none" stroke="none"/><text fill="#000000" stroke="none" font-family="Arial" font-size="13px" font-style="normal" font-weight="normal" text-decoration="none" x="66.273193359375" y="134.5">Start</text></g></g><g transform="translate(-22,-78) scale(1,1)"><rect fill="#a3e0ff" stroke="none" x="176" y="104" width="73.20263671875" height="45"/></g><g transform="translate(-22,-78) scale(1,1)"><path fill="none" stroke="#000000" d="M 176 104 L 249.20263671875 104 L 249.20263671875 149 L 176 149 L 176 104 Z Z" stroke-miterlimit="10"/></g><g transform="translate(-22,-78) scale(1,1)"><g><path fill="none" stroke="none"/><text fill="#000000" stroke="none" font-family="Arial" font-size="13px" font-style="normal" font-weight="normal" text-decoration="none" x="185.5" y="126.5">Mutanten</text><text fill="#000000" stroke="none" font-family="Arial" font-size="13px" font-style="normal" font-weight="normal" text-decoration="none" x="187.67724609375" y="139.5">ermitteln</text></g></g><g transform="translate(-22,-78) scale(1,1)"><rect fill="#a3e0ff" stroke="none" x="304" y="104" width="76.82080078125" height="45"/></g><g transform="translate(-22,-78) scale(1,1)"><path fill="none" stroke="#000000" d="M 304 104 L 380.82080078125 104 L 380.82080078125 149 L 304 149 L 304 104 Z Z" stroke-miterlimit="10"/></g><g transform="translate(-22,-78) scale(1,1)"><g><path fill="none" stroke="none"/><text fill="#000000" stroke="none" font-family="Arial" font-size="13px" font-style="normal" font-weight="normal" text-decoration="none" x="317.844970703125" y="126.5">Testfälle</text><text fill="#000000" stroke="none" font-family="Arial" font-size="13px" font-style="normal" font-weight="normal" text-decoration="none" x="313.5" y="139.5">ausführen</text></g></g><g transform="translate(-22,-78) scale(1,1)"><path fill="#ffadad" stroke="none" d="M 568 126.5 L 621.70263671875 88 L 675.4052734375 126.5 L 621.70263671875 165 L 568 126.5"/></g><g transform="translate(-22,-78) scale(1,1)"><path fill="none" stroke="#000000" d="M 568 126.5 L 621.70263671875 88 L 675.4052734375 126.5 L 621.70263671875 165 L 568 126.5 L 568 126.5" stroke-miterlimit="10"/></g><g transform="translate(-22,-78) scale(1,1)"><g><path fill="none" stroke="none"/><text fill="#000000" stroke="none" font-family="Arial" font-size="13px" font-style="normal" font-weight="normal" text-decoration="none" x="610.864013671875" y="120">Alle</text><text fill="#000000" stroke="none" font-family="Arial" font-size="13px" font-style="normal" font-weight="normal" text-decoration="none" x="594.601318359375" y="133">Mutanten</text><text fill="#000000" stroke="none" font-family="Arial" font-size="13px" font-style="normal" font-weight="normal" text-decoration="none" x="601.469482421875" y="146">gekillt?</text></g></g><g transform="translate(-22,-78) scale(1,1)"><path fill="none" stroke="#000000" d="M 129 127 L 175 127" stroke-miterlimit="10"/></g><g transform="translate(-22,-78) scale(1,1)"><path fill="#000000" stroke="none" d="M 164.83732514237585 131.209517756016 L 175 127 L 164.83732514237585 122.79048224398402"/></g><g transform="translate(-22,-78) scale(1,1)"><path fill="none" stroke="#000000" d="M 164.83732514237585 131.209517756016 L 175 127 L 164.83732514237585 122.79048224398402 L 164.83732514237585 131.209517756016" stroke-miterlimit="10"/></g><g transform="translate(-22,-78) scale(1,1)"><path fill="none" stroke="#000000" d="M 250 126 L 303 126" stroke-miterlimit="10"/></g><g transform="translate(-22,-78) scale(1,1)"><path fill="#000000" stroke="none" d="M 292.83732514237585 130.209517756016 L 303 126 L 292.83732514237585 121.79048224398402"/></g><g transform="translate(-22,-78) scale(1,1)"><path fill="none" stroke="#000000" d="M 292.83732514237585 130.209517756016 L 303 126 L 292.83732514237585 121.79048224398402 L 292.83732514237585 130.209517756016" stroke-miterlimit="10"/></g><g transform="translate(-22,-78) scale(1,1)"><rect fill="#ffadad" stroke="none" x="400" y="200" width="152" height="45"/></g><g transform="translate(-22,-78) scale(1,1)"><path fill="none" stroke="#000000" d="M 400 200 L 552 200 L 552 245 L 400 245 L 400 200 Z Z" stroke-miterlimit="10"/></g><g transform="translate(-22,-78) scale(1,1)"><g><path fill="none" stroke="none"/><text fill="#000000" stroke="none" font-family="Arial" font-size="13px" font-style="normal" font-weight="normal" text-decoration="none" x="417.826904296875" y="222.5">Testfälle anpassen /</text><text fill="#000000" stroke="none" font-family="Arial" font-size="13px" font-style="normal" font-weight="normal" text-decoration="none" x="449.266845703125" y="235.5">erweitern</text></g></g><g transform="translate(-22,-78) scale(1,1)"><path fill="#ffffff" stroke="none" d="M 744.5 112 L 807.5 112 Q 824 112 824 128.5 L 824 127.5 Q 824 144 807.5 144 L 744.5 144 Q 728 144 728 127.5 L 728 128.5 Q 728 112 744.5 112 Z"/></g><g transform="translate(-22,-78) scale(1,1)"><path fill="none" stroke="#000000" d="M 744.5 112 L 807.5 112 Q 824 112 824 128.5 L 824 127.5 Q 824 144 807.5 144 L 744.5 144 Q 728 144 728 127.5 L 728 128.5 Q 728 112 744.5 112 Z" stroke-miterlimit="10"/></g><g transform="translate(-22,-78) scale(1,1)"><g><path fill="none" stroke="none"/><text fill="#000000" stroke="none" font-family="Arial" font-size="13px" font-style="normal" font-weight="normal" text-decoration="none" x="759.385009765625" y="134.5">Fertig</text></g></g><g transform="translate(-22,-78) scale(1,1)"><rect fill="#ffadad" stroke="none" x="432" y="104" width="78.97900390625" height="45"/></g><g transform="translate(-22,-78) scale(1,1)"><path fill="none" stroke="#000000" d="M 432 104 L 510.97900390625 104 L 510.97900390625 149 L 432 149 L 432 104 Z Z" stroke-miterlimit="10"/></g><g transform="translate(-22,-78) scale(1,1)"><g><path fill="none" stroke="none"/><text fill="#000000" stroke="none" font-family="Arial" font-size="13px" font-style="normal" font-weight="normal" text-decoration="none" x="451.97998046875" y="126.5">Report</text><text fill="#000000" stroke="none" font-family="Arial" font-size="13px" font-style="normal" font-weight="normal" text-decoration="none" x="441.5" y="139.5">auswerten</text></g></g><g transform="translate(-22,-78) scale(1,1)"><path fill="none" stroke="#000000" d="M 381 126 L 432 126" stroke-miterlimit="10"/></g><g transform="translate(-22,-78) scale(1,1)"><path fill="#000000" stroke="none" d="M 421.83732514237585 130.209517756016 L 432 126 L 421.83732514237585 121.79048224398402"/></g><g transform="translate(-22,-78) scale(1,1)"><path fill="none" stroke="#000000" d="M 421.83732514237585 130.209517756016 L 432 126 L 421.83732514237585 121.79048224398402 L 421.83732514237585 130.209517756016" stroke-miterlimit="10"/></g><g transform="translate(-22,-78) scale(1,1)"><path fill="none" stroke="#000000" d="M 511 126 L 568 126" stroke-miterlimit="10"/></g><g transform="translate(-22,-78) scale(1,1)"><path fill="#000000" stroke="none" d="M 557.8373251423759 130.209517756016 L 568 126 L 557.8373251423758 121.79048224398402"/></g><g transform="translate(-22,-78) scale(1,1)"><path fill="none" stroke="#000000" d="M 557.8373251423759 130.209517756016 L 568 126 L 557.8373251423758 121.79048224398402 L 557.8373251423759 130.209517756016" stroke-miterlimit="10"/></g><g transform="translate(-22,-78) scale(1,1)"><path fill="none" stroke="#000000" d="M 624 165 L 624 214 M 624 214 A 8 8 0 0 1 616 222 L 552 222" stroke-miterlimit="10"/></g><g transform="translate(-22,-78) scale(1,1)"><path fill="#000000" stroke="none" d="M 562.1626748576241 217.790482243984 L 552 222 L 562.1626748576241 226.209517756016"/></g><g transform="translate(-22,-78) scale(1,1)"><path fill="none" stroke="#000000" d="M 562.1626748576241 217.790482243984 L 552 222 L 562.1626748576241 226.209517756016 L 562.1626748576241 217.790482243984" stroke-miterlimit="10"/></g><g transform="translate(-22,-78) scale(1,1)"><g><path fill="none" stroke="none"/><text fill="#000000" stroke="none" font-family="Arial" font-size="13px" font-style="normal" font-weight="normal" text-decoration="none" x="639" y="189">nein</text></g></g><g transform="translate(-22,-78) scale(1,1)"><path fill="none" stroke="#000000" d="M 675 128 L 728 128" stroke-miterlimit="10"/></g><g transform="translate(-22,-78) scale(1,1)"><path fill="#000000" stroke="none" d="M 717.8373251423759 132.209517756016 L 728 128 L 717.8373251423758 123.79048224398402"/></g><g transform="translate(-22,-78) scale(1,1)"><path fill="none" stroke="#000000" d="M 717.8373251423759 132.209517756016 L 728 128 L 717.8373251423758 123.79048224398402 L 717.8373251423759 132.209517756016" stroke-miterlimit="10"/></g><g transform="translate(-22,-78) scale(1,1)"><g><path fill="none" stroke="none"/><text fill="#000000" stroke="none" font-family="Arial" font-size="13px" font-style="normal" font-weight="normal" text-decoration="none" x="686" y="117">ja</text></g></g><g transform="translate(-22,-78) scale(1,1)"><path fill="none" stroke="#000000" d="M 400 222 L 352 222 M 352 222 A 8 8 0 0 1 344 214 L 344 149" stroke-miterlimit="10"/></g><g transform="translate(-22,-78) scale(1,1)"><path fill="#000000" stroke="none" d="M 348.209517756016 159.16267485762415 L 344 149 L 339.790482243984 159.16267485762415"/></g><g transform="translate(-22,-78) scale(1,1)"><path fill="none" stroke="#000000" d="M 348.209517756016 159.16267485762415 L 344 149 L 339.790482243984 159.16267485762415 L 348.209517756016 159.16267485762415" stroke-miterlimit="10"/></g></g></svg>