<svg version="1.1" xmlns="http://www.w3.org/2000/svg" xmlns:xlink="http://www.w3.org/1999/xlink" width="724" height="308"><defs/><g><g transform="translate(-54,-102) scale(1,1)"><rect fill="#ffffff" stroke="none" x="64" y="112" width="144" height="32"/></g><g transform="translate(-54,-102) scale(1,1)"><path fill="none" stroke="#000000" d="M 64 112 L 208 112 L 208 144 L 64 144 L 64 112 Z Z" stroke-miterlimit="10"/></g><g transform="translate(-54,-102) scale(1,1)"><g><path fill="none" stroke="none"/><text fill="#000000" stroke="none" font-family="Arial" font-size="13px" font-style="normal" font-weight="normal" text-decoration="none" x="74.570556640625" y="134.5">Anforderungsanalyse</text></g></g><g transform="translate(-54,-102) scale(1,1)"><rect fill="#ffffff" stroke="none" x="128" y="176" width="144" height="32"/></g><g transform="translate(-54,-102) scale(1,1)"><path fill="none" stroke="#000000" d="M 128 176 L 272 176 L 272 208 L 128 208 L 128 176 Z Z" stroke-miterlimit="10"/></g><g transform="translate(-54,-102) scale(1,1)"><g><path fill="none" stroke="none"/><text fill="#000000" stroke="none" font-family="Arial" font-size="13px" font-style="normal" font-weight="normal" text-decoration="none" x="147.984130859375" y="198.5">Systemarchitektur</text></g></g><g transform="translate(-54,-102) scale(1,1)"><rect fill="#ffffff" stroke="none" x="192" y="240" width="144" height="32"/></g><g transform="translate(-54,-102) scale(1,1)"><path fill="none" stroke="#000000" d="M 192 240 L 336 240 L 336 272 L 192 272 L 192 240 Z Z" stroke-miterlimit="10"/></g><g transform="translate(-54,-102) scale(1,1)"><g><path fill="none" stroke="none"/><text fill="#000000" stroke="none" font-family="Arial" font-size="13px" font-style="normal" font-weight="normal" text-decoration="none" x="221.013671875" y="262.5">Systementwurf</text></g></g><g transform="translate(-54,-102) scale(1,1)"><rect fill="#ffffff" stroke="none" x="256" y="304" width="144" height="32"/></g><g transform="translate(-54,-102) scale(1,1)"><path fill="none" stroke="#000000" d="M 256 304 L 400 304 L 400 336 L 256 336 L 256 304 Z Z" stroke-miterlimit="10"/></g><g transform="translate(-54,-102) scale(1,1)"><g><path fill="none" stroke="none"/><text fill="#000000" stroke="none" font-family="Arial" font-size="13px" font-style="normal" font-weight="normal" text-decoration="none" x="272.004150390625" y="326.5">Softwarearchitektur</text></g></g><g transform="translate(-54,-102) scale(1,1)"><rect fill="#ffffff" stroke="none" x="344" y="368" width="144" height="32"/></g><g transform="translate(-54,-102) scale(1,1)"><path fill="none" stroke="#000000" d="M 344 368 L 488 368 L 488 400 L 344 400 L 344 368 Z Z" stroke-miterlimit="10"/></g><g transform="translate(-54,-102) scale(1,1)"><g><path fill="none" stroke="none"/><text fill="#000000" stroke="none" font-family="Arial" font-size="13px" font-style="normal" font-weight="normal" text-decoration="none" x="369.03369140625" y="390.5">Softwareentwurf</text></g></g><g transform="translate(-54,-102) scale(1,1)"><rect fill="#b0ffb0" stroke="none" x="432" y="304" width="144" height="32"/></g><g transform="translate(-54,-102) scale(1,1)"><path fill="none" stroke="#000000" d="M 432 304 L 576 304 L 576 336 L 432 336 L 432 304 Z Z" stroke-miterlimit="10"/></g><g transform="translate(-54,-102) scale(1,1)"><g><path fill="none" stroke="none"/><text fill="#000000" stroke="none" font-family="Arial" font-size="13px" font-style="normal" font-weight="normal" text-decoration="none" x="478.714111328125" y="326.5">Unittests</text></g></g><g transform="translate(-54,-102) scale(1,1)"><rect fill="#b0ffb0" stroke="none" x="496" y="240" width="144" height="32"/></g><g transform="translate(-54,-102) scale(1,1)"><path fill="none" stroke="#000000" d="M 496 240 L 640 240 L 640 272 L 496 272 L 496 240 Z Z" stroke-miterlimit="10"/></g><g transform="translate(-54,-102) scale(1,1)"><g><path fill="none" stroke="none"/><text fill="#000000" stroke="none" font-family="Arial" font-size="13px" font-style="normal" font-weight="normal" text-decoration="none" x="520.306884765625" y="262.5">Integrationstests</text></g></g><g transform="translate(-54,-102) scale(1,1)"><rect fill="#b0ffb0" stroke="none" x="560" y="176" width="144" height="32"/></g><g transform="translate(-54,-102) scale(1,1)"><path fill="none" stroke="#000000" d="M 560 176 L 704 176 L 704 208 L 560 208 L 560 176 Z Z" stroke-miterlimit="10"/></g><g transform="translate(-54,-102) scale(1,1)"><g><path fill="none" stroke="none"/><text fill="#000000" stroke="none" font-family="Arial" font-size="13px" font-style="normal" font-weight="normal" text-decoration="none" x="579.974609375" y="198.5">Systemintegration</text></g></g><g transform="translate(-54,-102) scale(1,1)"><rect fill="#ffffff" stroke="none" x="624" y="112" width="144" height="32"/></g><g transform="translate(-54,-102) scale(1,1)"><path fill="none" stroke="#000000" d="M 624 112 L 768 112 L 768 144 L 624 144 L 624 112 Z Z" stroke-miterlimit="10"/></g><g transform="translate(-54,-102) scale(1,1)"><g><path fill="none" stroke="none"/><text fill="#000000" stroke="none" font-family="Arial" font-size="13px" font-style="normal" font-weight="normal" text-decoration="none" x="668.175048828125" y="134.5">Abnahme</text></g></g><g transform="translate(-54,-102) scale(1,1)"><path fill="none" stroke="#000000" d="M 153 145 L 183 175" stroke-miterlimit="10"/></g><g transform="translate(-54,-102) scale(1,1)"><path fill="#000000" stroke="none" d="M 172.83732514237585 170.790482243984 L 183 175 L 178.790482243984 164.83732514237585"/></g><g transform="translate(-54,-102) scale(1,1)"><path fill="none" stroke="#000000" d="M 172.83732514237585 170.790482243984 L 183 175 L 178.790482243984 164.83732514237585 L 172.83732514237585 170.790482243984" stroke-miterlimit="10"/></g><g transform="translate(-54,-102) scale(1,1)"><path fill="none" stroke="#000000" d="M 217 209 L 247 239" stroke-miterlimit="10"/></g><g transform="translate(-54,-102) scale(1,1)"><path fill="#000000" stroke="none" d="M 236.83732514237585 234.790482243984 L 247 239 L 242.790482243984 228.83732514237585"/></g><g transform="translate(-54,-102) scale(1,1)"><path fill="none" stroke="#000000" d="M 236.83732514237585 234.790482243984 L 247 239 L 242.790482243984 228.83732514237585 L 236.83732514237585 234.790482243984" stroke-miterlimit="10"/></g><g transform="translate(-54,-102) scale(1,1)"><path fill="none" stroke="#000000" d="M 281 273 L 311 303" stroke-miterlimit="10"/></g><g transform="translate(-54,-102) scale(1,1)"><path fill="#000000" stroke="none" d="M 300.83732514237585 298.790482243984 L 311 303 L 306.790482243984 292.83732514237585"/></g><g transform="translate(-54,-102) scale(1,1)"><path fill="none" stroke="#000000" d="M 300.83732514237585 298.790482243984 L 311 303 L 306.790482243984 292.83732514237585 L 300.83732514237585 298.790482243984" stroke-miterlimit="10"/></g><g transform="translate(-54,-102) scale(1,1)"><path fill="none" stroke="#000000" d="M 351 337 L 393 367" stroke-miterlimit="10"/></g><g transform="translate(-54,-102) scale(1,1)"><path fill="#000000" stroke="none" d="M 382.2835588144249 364.5184907181093 L 393 367 L 387.1770238082953 357.66763972669077"/></g><g transform="translate(-54,-102) scale(1,1)"><path fill="none" stroke="#000000" d="M 382.2835588144249 364.5184907181093 L 393 367 L 387.1770238082953 357.66763972669077 L 382.2835588144249 364.5184907181093" stroke-miterlimit="10"/></g><g transform="translate(-54,-102) scale(1,1)"><path fill="none" stroke="#000000" d="M 439 367 L 481 337" stroke-miterlimit="10"/></g><g transform="translate(-54,-102) scale(1,1)"><path fill="#000000" stroke="none" d="M 475.1770238082953 346.33236027330923 L 481 337 L 470.2835588144249 339.4815092818907"/></g><g transform="translate(-54,-102) scale(1,1)"><path fill="none" stroke="#000000" d="M 475.1770238082953 346.33236027330923 L 481 337 L 470.2835588144249 339.4815092818907 L 475.1770238082953 346.33236027330923" stroke-miterlimit="10"/></g><g transform="translate(-54,-102) scale(1,1)"><path fill="none" stroke="#000000" d="M 521 303 L 551 273" stroke-miterlimit="10"/></g><g transform="translate(-54,-102) scale(1,1)"><path fill="#000000" stroke="none" d="M 546.790482243984 283.16267485762415 L 551 273 L 540.8373251423759 277.209517756016"/></g><g transform="translate(-54,-102) scale(1,1)"><path fill="none" stroke="#000000" d="M 546.790482243984 283.16267485762415 L 551 273 L 540.8373251423759 277.209517756016 L 546.790482243984 283.16267485762415" stroke-miterlimit="10"/></g><g transform="translate(-54,-102) scale(1,1)"><path fill="none" stroke="#000000" d="M 585 239 L 615 209" stroke-miterlimit="10"/></g><g transform="translate(-54,-102) scale(1,1)"><path fill="#000000" stroke="none" d="M 610.790482243984 219.16267485762415 L 615 209 L 604.8373251423759 213.209517756016"/></g><g transform="translate(-54,-102) scale(1,1)"><path fill="none" stroke="#000000" d="M 610.790482243984 219.16267485762415 L 615 209 L 604.8373251423759 213.209517756016 L 610.790482243984 219.16267485762415" stroke-miterlimit="10"/></g><g transform="translate(-54,-102) scale(1,1)"><path fill="none" stroke="#000000" d="M 649 175 L 679 145" stroke-miterlimit="10"/></g><g transform="translate(-54,-102) scale(1,1)"><path fill="#000000" stroke="none" d="M 674.790482243984 155.16267485762415 L 679 145 L 668.8373251423759 149.209517756016"/></g><g transform="translate(-54,-102) scale(1,1)"><path fill="none" stroke="#000000" d="M 674.790482243984 155.16267485762415 L 679 145 L 668.8373251423759 149.209517756016 L 674.790482243984 155.16267485762415" stroke-miterlimit="10"/></g></g></svg>